# MagicaVoxel @ Ephtracy

# group
o 

# material
mtllib BombBoxEdge.mtl
usemtl palette

# normals
vn -1 0 0
vn 1 0 0
vn 0 0 1
vn 0 0 -1
vn 0 -1 0
vn 0 1 0

# texcoords
vt 0.751953 0.5
vt 0.849609 0.5

# verts
v -0.2 0 0.8
v -0.2 0 -0.8
v -0.2 1.5 0.8
v -0.2 1.5 -0.8
v -0.2 1.6 0.8
v -0.2 1.6 -0.8
v 0.2 0 0.8
v 0.2 0 -0.8
v 0.2 1.5 0.8
v 0.2 1.5 -0.8
v 0.3 1.5 0.8
v 0.3 1.5 -0.8
v 0.3 1.6 0.8
v 0.3 1.6 -0.8
v -0.2 0 0.8
v -0.2 1.5 0.8
v -0.2 1.6 0.8
v -0.1 1.5 0.8
v -0.1 1.6 0.8
v 0.2 0 0.8
v 0.2 1.5 0.8
v 0.2 1.6 0.8
v 0.3 1.5 0.8
v 0.3 1.6 0.8
v -0.2 0 -0.8
v -0.2 1.5 -0.8
v -0.2 1.6 -0.8
v -0.1 1.5 -0.8
v -0.1 1.6 -0.8
v 0.2 0 -0.8
v 0.2 1.5 -0.8
v 0.2 1.6 -0.8
v 0.3 1.5 -0.8
v 0.3 1.6 -0.8
v -0.2 0 0.8
v 0.2 0 0.8
v -0.2 0 -0.8
v 0.2 0 -0.8
v 0.2 1.5 0.8
v 0.3 1.5 0.8
v 0.2 1.5 -0.8
v 0.3 1.5 -0.8
v -0.2 1.6 0.8
v -0.1 1.6 0.8
v 0.2 1.6 0.8
v 0.3 1.6 0.8
v -0.2 1.6 -0.8
v -0.1 1.6 -0.8
v 0.2 1.6 -0.8
v 0.3 1.6 -0.8

# faces
f 3/1/1 2/1/1 1/1/1
f 4/1/1 2/1/1 3/1/1
f 5/2/1 4/2/1 3/2/1
f 6/2/1 4/2/1 5/2/1
f 7/1/2 8/1/2 9/1/2
f 9/1/2 8/1/2 10/1/2
f 11/2/2 12/2/2 13/2/2
f 13/2/2 12/2/2 14/2/2
f 18/1/3 16/1/3 15/1/3
f 18/2/3 17/2/3 16/2/3
f 19/2/3 17/2/3 18/2/3
f 20/1/3 18/1/3 15/1/3
f 20/1/3 19/1/3 18/1/3
f 21/1/3 19/1/3 20/1/3
f 22/1/3 19/1/3 21/1/3
f 23/2/3 22/2/3 21/2/3
f 24/2/3 22/2/3 23/2/3
f 25/1/4 26/1/4 28/1/4
f 26/2/4 27/2/4 28/2/4
f 28/2/4 27/2/4 29/2/4
f 25/1/4 28/1/4 30/1/4
f 28/1/4 29/1/4 30/1/4
f 30/1/4 29/1/4 31/1/4
f 31/1/4 29/1/4 32/1/4
f 31/2/4 32/2/4 33/2/4
f 33/2/4 32/2/4 34/2/4
f 37/1/5 36/1/5 35/1/5
f 38/1/5 36/1/5 37/1/5
f 41/2/5 40/2/5 39/2/5
f 42/2/5 40/2/5 41/2/5
f 43/2/6 44/2/6 47/2/6
f 44/1/6 45/1/6 48/1/6
f 47/2/6 44/2/6 48/2/6
f 45/2/6 46/2/6 49/2/6
f 48/1/6 45/1/6 49/1/6
f 49/2/6 46/2/6 50/2/6
