# MagicaVoxel @ Ephtracy

# group
o 

# material
mtllib BombGoldHeartEmpty.mtl
usemtl palette

# normals
vn -1 0 0
vn 1 0 0
vn 0 0 1
vn 0 0 -1
vn 0 -1 0
vn 0 1 0

# texcoords
vt 0.884766 0.5
vt 0.888672 0.5
vt 0.892578 0.5
vt 0.923828 0.5

# verts
v 0 0 0
v 0 0 -0.1
v 0 0.1 0.1
v 0 0.1 0
v 0 0.1 -0.1
v 0 0.1 -0.2
v 0 0.2 0.2
v 0 0.2 0.1
v 0 0.2 0
v 0 0.2 -0.1
v 0 0.2 -0.2
v 0 0.2 -0.3
v 0 0.3 0.3
v 0 0.3 0.2
v 0 0.3 0.1
v 0 0.3 -0.2
v 0 0.3 -0.3
v 0 0.3 -0.4
v 0 0.4 0.4
v 0 0.4 0.3
v 0 0.4 0.2
v 0 0.4 -0.3
v 0 0.4 -0.4
v 0 0.4 -0.5
v 0 0.5 0.5
v 0 0.5 0.4
v 0 0.5 0.3
v 0 0.5 -0.4
v 0 0.5 -0.5
v 0 0.5 -0.6
v 0 0.6 0.4
v 0 0.6 0.3
v 0 0.7 0
v 0 0.7 -0.1
v 0 0.7 -0.5
v 0 0.7 -0.6
v 0 0.8 0.4
v 0 0.8 0.3
v 0 0.8 0.2
v 0 0.8 0.1
v 0 0.8 0
v 0 0.8 -0.1
v 0 0.8 -0.2
v 0 0.8 -0.4
v 0 0.8 -0.5
v 0 0.9 0.5
v 0 0.9 0.4
v 0 0.9 0.3
v 0 0.9 0.2
v 0 0.9 0.1
v 0 0.9 0
v 0 0.9 -0.1
v 0 0.9 -0.2
v 0 0.9 -0.4
v 0 0.9 -0.5
v 0 0.9 -0.6
v 0 1 0.4
v 0 1 0.1
v 0 1 -0.2
v 0 1 -0.5
v 0.1 0 0
v 0.1 0 -0.1
v 0.1 0.1 0.1
v 0.1 0.1 0
v 0.1 0.1 -0.1
v 0.1 0.1 -0.2
v 0.1 0.2 0.2
v 0.1 0.2 0.1
v 0.1 0.2 0
v 0.1 0.2 -0.1
v 0.1 0.2 -0.2
v 0.1 0.2 -0.3
v 0.1 0.3 0.3
v 0.1 0.3 0.2
v 0.1 0.3 0.1
v 0.1 0.3 -0.2
v 0.1 0.3 -0.3
v 0.1 0.3 -0.4
v 0.1 0.4 0.4
v 0.1 0.4 0.3
v 0.1 0.4 0.2
v 0.1 0.4 -0.3
v 0.1 0.4 -0.4
v 0.1 0.4 -0.5
v 0.1 0.5 0.5
v 0.1 0.5 0.4
v 0.1 0.5 0.3
v 0.1 0.5 -0.4
v 0.1 0.5 -0.5
v 0.1 0.5 -0.6
v 0.1 0.6 0.4
v 0.1 0.6 0.3
v 0.1 0.7 0
v 0.1 0.7 -0.1
v 0.1 0.7 -0.5
v 0.1 0.7 -0.6
v 0.1 0.8 0.4
v 0.1 0.8 0.3
v 0.1 0.8 0.2
v 0.1 0.8 0.1
v 0.1 0.8 0
v 0.1 0.8 -0.1
v 0.1 0.8 -0.2
v 0.1 0.8 -0.4
v 0.1 0.8 -0.5
v 0.1 0.9 0.5
v 0.1 0.9 0.4
v 0.1 0.9 0.3
v 0.1 0.9 0.2
v 0.1 0.9 0.1
v 0.1 0.9 0
v 0.1 0.9 -0.1
v 0.1 0.9 -0.2
v 0.1 0.9 -0.4
v 0.1 0.9 -0.5
v 0.1 0.9 -0.6
v 0.1 1 0.4
v 0.1 1 0.1
v 0.1 1 -0.2
v 0.1 1 -0.5
v 0 0.5 0.5
v 0 0.9 0.5
v 0.1 0.5 0.5
v 0.1 0.9 0.5
v 0 0.4 0.4
v 0 0.5 0.4
v 0 0.9 0.4
v 0 1 0.4
v 0.1 0.4 0.4
v 0.1 0.5 0.4
v 0.1 0.9 0.4
v 0.1 1 0.4
v 0 0.3 0.3
v 0 0.4 0.3
v 0.1 0.3 0.3
v 0.1 0.4 0.3
v 0 0.2 0.2
v 0 0.3 0.2
v 0.1 0.2 0.2
v 0.1 0.3 0.2
v 0 0.1 0.1
v 0 0.2 0.1
v 0.1 0.1 0.1
v 0.1 0.2 0.1
v 0 0 0
v 0 0.1 0
v 0.1 0 0
v 0.1 0.1 0
v 0 0.8 -0.1
v 0 0.9 -0.1
v 0.1 0.8 -0.1
v 0.1 0.9 -0.1
v 0 0.9 -0.2
v 0 1 -0.2
v 0.1 0.9 -0.2
v 0.1 1 -0.2
v 0 0.9 0.1
v 0 1 0.1
v 0.1 0.9 0.1
v 0.1 1 0.1
v 0 0.8 0
v 0 0.9 0
v 0.1 0.8 0
v 0.1 0.9 0
v 0 0 -0.1
v 0 0.1 -0.1
v 0.1 0 -0.1
v 0.1 0.1 -0.1
v 0 0.1 -0.2
v 0 0.2 -0.2
v 0.1 0.1 -0.2
v 0.1 0.2 -0.2
v 0 0.2 -0.3
v 0 0.3 -0.3
v 0.1 0.2 -0.3
v 0.1 0.3 -0.3
v 0 0.3 -0.4
v 0 0.4 -0.4
v 0.1 0.3 -0.4
v 0.1 0.4 -0.4
v 0 0.4 -0.5
v 0 0.5 -0.5
v 0 0.9 -0.5
v 0 1 -0.5
v 0.1 0.4 -0.5
v 0.1 0.5 -0.5
v 0.1 0.9 -0.5
v 0.1 1 -0.5
v 0 0.5 -0.6
v 0 0.7 -0.6
v 0 0.9 -0.6
v 0.1 0.5 -0.6
v 0.1 0.7 -0.6
v 0.1 0.9 -0.6
v 0 0 0
v 0.1 0 0
v 0 0 -0.1
v 0.1 0 -0.1
v 0 0.1 0.1
v 0.1 0.1 0.1
v 0 0.1 0
v 0.1 0.1 0
v 0 0.1 -0.1
v 0.1 0.1 -0.1
v 0 0.1 -0.2
v 0.1 0.1 -0.2
v 0 0.2 0.2
v 0.1 0.2 0.2
v 0 0.2 0.1
v 0.1 0.2 0.1
v 0 0.2 -0.2
v 0.1 0.2 -0.2
v 0 0.2 -0.3
v 0.1 0.2 -0.3
v 0 0.3 0.3
v 0.1 0.3 0.3
v 0 0.3 0.2
v 0.1 0.3 0.2
v 0 0.3 -0.3
v 0.1 0.3 -0.3
v 0 0.3 -0.4
v 0.1 0.3 -0.4
v 0 0.4 0.4
v 0.1 0.4 0.4
v 0 0.4 0.3
v 0.1 0.4 0.3
v 0 0.4 -0.4
v 0.1 0.4 -0.4
v 0 0.4 -0.5
v 0.1 0.4 -0.5
v 0 0.5 0.5
v 0.1 0.5 0.5
v 0 0.5 0.4
v 0.1 0.5 0.4
v 0 0.5 -0.5
v 0.1 0.5 -0.5
v 0 0.5 -0.6
v 0.1 0.5 -0.6
v 0 0.8 0
v 0.1 0.8 0
v 0 0.8 -0.1
v 0.1 0.8 -0.1
v 0 0.9 0.5
v 0.1 0.9 0.5
v 0 0.9 0.4
v 0.1 0.9 0.4
v 0 0.9 0.1
v 0.1 0.9 0.1
v 0 0.9 0
v 0.1 0.9 0
v 0 0.9 -0.1
v 0.1 0.9 -0.1
v 0 0.9 -0.2
v 0.1 0.9 -0.2
v 0 0.9 -0.5
v 0.1 0.9 -0.5
v 0 0.9 -0.6
v 0.1 0.9 -0.6
v 0 1 0.4
v 0.1 1 0.4
v 0 1 0.1
v 0.1 1 0.1
v 0 1 -0.2
v 0.1 1 -0.2
v 0 1 -0.5
v 0.1 1 -0.5

# faces
f 4/1/1 2/1/1 1/1/1
f 5/1/1 2/1/1 4/1/1
f 8/2/1 4/2/1 3/2/1
f 9/3/1 5/3/1 4/3/1
f 9/2/1 4/2/1 8/2/1
f 10/1/1 6/1/1 5/1/1
f 10/3/1 5/3/1 9/3/1
f 11/1/1 6/1/1 10/1/1
f 14/2/1 8/2/1 7/2/1
f 15/3/1 9/3/1 8/3/1
f 15/3/1 10/3/1 9/3/1
f 15/2/1 8/2/1 14/2/1
f 15/3/1 11/3/1 10/3/1
f 16/1/1 12/1/1 11/1/1
f 16/3/1 11/3/1 15/3/1
f 17/1/1 12/1/1 16/1/1
f 20/2/1 14/2/1 13/2/1
f 21/3/1 15/3/1 14/3/1
f 21/3/1 16/3/1 15/3/1
f 21/2/1 14/2/1 20/2/1
f 21/3/1 17/3/1 16/3/1
f 22/1/1 18/1/1 17/1/1
f 22/3/1 17/3/1 21/3/1
f 23/1/1 18/1/1 22/1/1
f 26/2/1 20/2/1 19/2/1
f 27/3/1 21/3/1 20/3/1
f 27/3/1 22/3/1 21/3/1
f 27/2/1 20/2/1 26/2/1
f 27/3/1 23/3/1 22/3/1
f 28/1/1 24/1/1 23/1/1
f 28/3/1 23/3/1 27/3/1
f 29/1/1 24/1/1 28/1/1
f 31/2/1 26/2/1 25/2/1
f 31/3/1 27/3/1 26/3/1
f 31/3/1 29/3/1 28/3/1
f 31/3/1 28/3/1 27/3/1
f 32/3/1 29/3/1 31/3/1
f 33/3/1 29/3/1 32/3/1
f 34/3/1 29/3/1 33/3/1
f 35/1/1 30/1/1 29/1/1
f 35/3/1 29/3/1 34/3/1
f 36/1/1 30/1/1 35/1/1
f 37/2/1 31/2/1 25/2/1
f 37/4/1 32/4/1 31/4/1
f 38/3/1 33/3/1 32/3/1
f 38/4/1 32/4/1 37/4/1
f 39/3/1 33/3/1 38/3/1
f 40/3/1 33/3/1 39/3/1
f 41/2/1 34/2/1 33/2/1
f 41/3/1 33/3/1 40/3/1
f 42/3/1 35/3/1 34/3/1
f 42/2/1 34/2/1 41/2/1
f 43/3/1 35/3/1 42/3/1
f 44/3/1 35/3/1 43/3/1
f 45/2/1 36/2/1 35/2/1
f 45/3/1 35/3/1 44/3/1
f 46/2/1 37/2/1 25/2/1
f 46/2/1 38/2/1 37/2/1
f 47/2/1 38/2/1 46/2/1
f 48/4/1 39/4/1 38/4/1
f 48/2/1 38/2/1 47/2/1
f 49/3/1 40/3/1 39/3/1
f 49/4/1 39/4/1 48/4/1
f 50/2/1 41/2/1 40/2/1
f 50/3/1 40/3/1 49/3/1
f 51/2/1 41/2/1 50/2/1
f 52/2/1 43/2/1 42/2/1
f 53/3/1 44/3/1 43/3/1
f 53/2/1 43/2/1 52/2/1
f 54/2/1 45/2/1 44/2/1
f 54/3/1 44/3/1 53/3/1
f 55/2/1 36/2/1 45/2/1
f 55/2/1 45/2/1 54/2/1
f 56/2/1 36/2/1 55/2/1
f 57/2/1 48/2/1 47/2/1
f 57/2/1 49/2/1 48/2/1
f 57/2/1 50/2/1 49/2/1
f 58/2/1 50/2/1 57/2/1
f 59/2/1 54/2/1 53/2/1
f 59/2/1 55/2/1 54/2/1
f 60/2/1 55/2/1 59/2/1
f 61/1/2 62/1/2 64/1/2
f 64/1/2 62/1/2 65/1/2
f 63/2/2 64/2/2 68/2/2
f 64/3/2 65/3/2 69/3/2
f 68/2/2 64/2/2 69/2/2
f 65/1/2 66/1/2 70/1/2
f 69/3/2 65/3/2 70/3/2
f 70/1/2 66/1/2 71/1/2
f 67/2/2 68/2/2 74/2/2
f 68/3/2 69/3/2 75/3/2
f 69/3/2 70/3/2 75/3/2
f 74/2/2 68/2/2 75/2/2
f 70/3/2 71/3/2 75/3/2
f 71/1/2 72/1/2 76/1/2
f 75/3/2 71/3/2 76/3/2
f 76/1/2 72/1/2 77/1/2
f 73/2/2 74/2/2 80/2/2
f 74/3/2 75/3/2 81/3/2
f 75/3/2 76/3/2 81/3/2
f 80/2/2 74/2/2 81/2/2
f 76/3/2 77/3/2 81/3/2
f 77/1/2 78/1/2 82/1/2
f 81/3/2 77/3/2 82/3/2
f 82/1/2 78/1/2 83/1/2
f 79/2/2 80/2/2 86/2/2
f 80/3/2 81/3/2 87/3/2
f 81/3/2 82/3/2 87/3/2
f 86/2/2 80/2/2 87/2/2
f 82/3/2 83/3/2 87/3/2
f 83/1/2 84/1/2 88/1/2
f 87/3/2 83/3/2 88/3/2
f 88/1/2 84/1/2 89/1/2
f 85/2/2 86/2/2 91/2/2
f 86/3/2 87/3/2 91/3/2
f 88/3/2 89/3/2 91/3/2
f 87/3/2 88/3/2 91/3/2
f 91/3/2 89/3/2 92/3/2
f 92/3/2 89/3/2 93/3/2
f 93/3/2 89/3/2 94/3/2
f 89/1/2 90/1/2 95/1/2
f 94/3/2 89/3/2 95/3/2
f 95/1/2 90/1/2 96/1/2
f 85/2/2 91/2/2 97/2/2
f 91/4/2 92/4/2 97/4/2
f 92/3/2 93/3/2 98/3/2
f 97/4/2 92/4/2 98/4/2
f 98/3/2 93/3/2 99/3/2
f 99/3/2 93/3/2 100/3/2
f 93/2/2 94/2/2 101/2/2
f 100/3/2 93/3/2 101/3/2
f 94/3/2 95/3/2 102/3/2
f 101/2/2 94/2/2 102/2/2
f 102/3/2 95/3/2 103/3/2
f 103/3/2 95/3/2 104/3/2
f 95/2/2 96/2/2 105/2/2
f 104/3/2 95/3/2 105/3/2
f 85/2/2 97/2/2 106/2/2
f 97/2/2 98/2/2 106/2/2
f 106/2/2 98/2/2 107/2/2
f 98/4/2 99/4/2 108/4/2
f 107/2/2 98/2/2 108/2/2
f 99/3/2 100/3/2 109/3/2
f 108/4/2 99/4/2 109/4/2
f 100/2/2 101/2/2 110/2/2
f 109/3/2 100/3/2 110/3/2
f 110/2/2 101/2/2 111/2/2
f 102/2/2 103/2/2 112/2/2
f 103/3/2 104/3/2 113/3/2
f 112/2/2 103/2/2 113/2/2
f 104/2/2 105/2/2 114/2/2
f 113/3/2 104/3/2 114/3/2
f 105/2/2 96/2/2 115/2/2
f 114/2/2 105/2/2 115/2/2
f 115/2/2 96/2/2 116/2/2
f 107/2/2 108/2/2 117/2/2
f 108/2/2 109/2/2 117/2/2
f 109/2/2 110/2/2 117/2/2
f 117/2/2 110/2/2 118/2/2
f 113/2/2 114/2/2 119/2/2
f 114/2/2 115/2/2 119/2/2
f 119/2/2 115/2/2 120/2/2
f 123/2/3 122/2/3 121/2/3
f 124/2/3 122/2/3 123/2/3
f 129/2/3 126/2/3 125/2/3
f 130/2/3 126/2/3 129/2/3
f 131/2/3 128/2/3 127/2/3
f 132/2/3 128/2/3 131/2/3
f 135/2/3 134/2/3 133/2/3
f 136/2/3 134/2/3 135/2/3
f 139/2/3 138/2/3 137/2/3
f 140/2/3 138/2/3 139/2/3
f 143/2/3 142/2/3 141/2/3
f 144/2/3 142/2/3 143/2/3
f 147/1/3 146/1/3 145/1/3
f 148/1/3 146/1/3 147/1/3
f 151/2/3 150/2/3 149/2/3
f 152/2/3 150/2/3 151/2/3
f 155/2/3 154/2/3 153/2/3
f 156/2/3 154/2/3 155/2/3
f 157/2/4 158/2/4 159/2/4
f 159/2/4 158/2/4 160/2/4
f 161/2/4 162/2/4 163/2/4
f 163/2/4 162/2/4 164/2/4
f 165/1/4 166/1/4 167/1/4
f 167/1/4 166/1/4 168/1/4
f 169/1/4 170/1/4 171/1/4
f 171/1/4 170/1/4 172/1/4
f 173/1/4 174/1/4 175/1/4
f 175/1/4 174/1/4 176/1/4
f 177/1/4 178/1/4 179/1/4
f 179/1/4 178/1/4 180/1/4
f 181/1/4 182/1/4 185/1/4
f 185/1/4 182/1/4 186/1/4
f 183/2/4 184/2/4 187/2/4
f 187/2/4 184/2/4 188/2/4
f 189/1/4 190/1/4 192/1/4
f 190/2/4 191/2/4 193/2/4
f 192/1/4 190/1/4 193/1/4
f 193/2/4 191/2/4 194/2/4
f 197/1/5 196/1/5 195/1/5
f 198/1/5 196/1/5 197/1/5
f 201/2/5 200/2/5 199/2/5
f 202/2/5 200/2/5 201/2/5
f 205/1/5 204/1/5 203/1/5
f 206/1/5 204/1/5 205/1/5
f 209/2/5 208/2/5 207/2/5
f 210/2/5 208/2/5 209/2/5
f 213/1/5 212/1/5 211/1/5
f 214/1/5 212/1/5 213/1/5
f 217/2/5 216/2/5 215/2/5
f 218/2/5 216/2/5 217/2/5
f 221/1/5 220/1/5 219/1/5
f 222/1/5 220/1/5 221/1/5
f 225/2/5 224/2/5 223/2/5
f 226/2/5 224/2/5 225/2/5
f 229/1/5 228/1/5 227/1/5
f 230/1/5 228/1/5 229/1/5
f 233/2/5 232/2/5 231/2/5
f 234/2/5 232/2/5 233/2/5
f 237/1/5 236/1/5 235/1/5
f 238/1/5 236/1/5 237/1/5
f 239/2/6 240/2/6 241/2/6
f 241/2/6 240/2/6 242/2/6
f 243/2/6 244/2/6 245/2/6
f 245/2/6 244/2/6 246/2/6
f 247/2/6 248/2/6 249/2/6
f 249/2/6 248/2/6 250/2/6
f 251/2/6 252/2/6 253/2/6
f 253/2/6 252/2/6 254/2/6
f 255/2/6 256/2/6 257/2/6
f 257/2/6 256/2/6 258/2/6
f 259/2/6 260/2/6 261/2/6
f 261/2/6 260/2/6 262/2/6
f 263/2/6 264/2/6 265/2/6
f 265/2/6 264/2/6 266/2/6
