# MagicaVoxel @ Ephtracy

# group
o 

# material
mtllib BombPort2WireAngle.mtl
usemtl palette

# normals
vn -1 0 0
vn 1 0 0
vn 0 0 1
vn 0 0 -1
vn 0 -1 0
vn 0 1 0

# texcoords
vt 0.783203 0.5
vt 0.787109 0.5
vt 0.791016 0.5

# verts
v 0 0 0.1
v 0 0 0
v 0 0 -0.1
v 0 0 -0.2
v 0 0.1 -0.1
v 0 0.1 -0.2
v 0 0.2 0
v 0 0.2 -0.2
v 0 0.3 0.1
v 0 0.3 -0.2
v 0.1 0 0.1
v 0.1 0 0
v 0.1 0 -0.1
v 0.1 0 -0.2
v 0.1 0.1 -0.1
v 0.1 0.1 -0.2
v 0.1 0.2 0
v 0.1 0.2 -0.2
v 0.1 0.3 0.1
v 0.1 0.3 -0.2
v 0 0 0.1
v 0 0.3 0.1
v 0.1 0 0.1
v 0.1 0.3 0.1
v 0 0 -0.2
v 0 0.1 -0.2
v 0 0.2 -0.2
v 0 0.3 -0.2
v 0.1 0 -0.2
v 0.1 0.1 -0.2
v 0.1 0.2 -0.2
v 0.1 0.3 -0.2
v 0 0 0.1
v 0.1 0 0.1
v 0 0 0
v 0.1 0 0
v 0 0 -0.1
v 0.1 0 -0.1
v 0 0 -0.2
v 0.1 0 -0.2
v 0 0.3 0.1
v 0.1 0.3 0.1
v 0 0.3 -0.2
v 0.1 0.3 -0.2

# faces
f 5/2/1 3/2/1 2/2/1
f 5/3/1 4/3/1 3/3/1
f 6/3/1 4/3/1 5/3/1
f 7/1/1 2/1/1 1/1/1
f 7/2/1 5/2/1 2/2/1
f 7/2/1 6/2/1 5/2/1
f 8/2/1 6/2/1 7/2/1
f 9/1/1 7/1/1 1/1/1
f 9/1/1 8/1/1 7/1/1
f 10/1/1 8/1/1 9/1/1
f 12/2/2 13/2/2 15/2/2
f 13/3/2 14/3/2 15/3/2
f 15/3/2 14/3/2 16/3/2
f 11/1/2 12/1/2 17/1/2
f 12/2/2 15/2/2 17/2/2
f 15/2/2 16/2/2 17/2/2
f 17/2/2 16/2/2 18/2/2
f 11/1/2 17/1/2 19/1/2
f 17/1/2 18/1/2 19/1/2
f 19/1/2 18/1/2 20/1/2
f 23/1/3 22/1/3 21/1/3
f 24/1/3 22/1/3 23/1/3
f 25/3/4 26/3/4 29/3/4
f 26/2/4 27/2/4 30/2/4
f 29/3/4 26/3/4 30/3/4
f 27/1/4 28/1/4 31/1/4
f 30/2/4 27/2/4 31/2/4
f 31/1/4 28/1/4 32/1/4
f 35/1/5 34/1/5 33/1/5
f 36/1/5 34/1/5 35/1/5
f 37/2/5 36/2/5 35/2/5
f 38/2/5 36/2/5 37/2/5
f 39/3/5 38/3/5 37/3/5
f 40/3/5 38/3/5 39/3/5
f 41/1/6 42/1/6 43/1/6
f 43/1/6 42/1/6 44/1/6
