# MagicaVoxel @ Ephtracy

# group
o 

# material
mtllib DisplayAngle.mtl
usemtl palette

# normals
vn -1 0 0
vn 1 0 0
vn 0 0 1
vn 0 0 -1
vn 0 -1 0
vn 0 1 0

# texcoords
vt 0.876953 0.5
vt 0.970703 0.5

# verts
v -0.1 0 0.8
v -0.1 0 0.6
v -0.1 0 -0.8
v -0.1 1.2 0.6
v -0.1 1.2 0.5
v -0.1 1.3 0.5
v -0.1 1.3 0.4
v -0.1 1.4 0.8
v -0.1 1.4 0.7
v -0.1 1.4 0.4
v -0.1 1.4 -0.8
v -0.1 1.5 0.7
v -0.1 1.5 0.6
v -0.1 1.6 0.6
v -0.1 1.6 -0.8
v 0 0 0.6
v 0 0 -0.8
v 0 1.2 0.6
v 0 1.2 0.5
v 0 1.3 0.5
v 0 1.3 0.4
v 0 1.4 0.4
v 0 1.4 -0.8
v 0.1 0 0.8
v 0.1 0 0.6
v 0.1 1.2 0.6
v 0.1 1.2 0.5
v 0.1 1.3 0.5
v 0.1 1.3 0.4
v 0.1 1.4 0.8
v 0.1 1.4 0.7
v 0.1 1.4 0.4
v 0.1 1.4 -0.8
v 0.1 1.5 0.7
v 0.1 1.5 0.6
v 0.1 1.6 0.6
v 0.1 1.6 -0.8
v -0.1 0 0.8
v -0.1 1.4 0.8
v 0.1 0 0.8
v 0.1 1.4 0.8
v -0.1 1.4 0.7
v -0.1 1.5 0.7
v 0.1 1.4 0.7
v 0.1 1.5 0.7
v -0.1 1.5 0.6
v -0.1 1.6 0.6
v 0.1 1.5 0.6
v 0.1 1.6 0.6
v 0 0 0.6
v 0 1.2 0.6
v 0.1 0 0.6
v 0.1 1.2 0.6
v 0 1.2 0.5
v 0 1.3 0.5
v 0.1 1.2 0.5
v 0.1 1.3 0.5
v 0 1.3 0.4
v 0 1.4 0.4
v 0.1 1.3 0.4
v 0.1 1.4 0.4
v -0.1 0 -0.8
v -0.1 1.4 -0.8
v -0.1 1.6 -0.8
v 0 0 -0.8
v 0 1.4 -0.8
v 0.1 1.4 -0.8
v 0.1 1.6 -0.8
v -0.1 0 0.8
v 0.1 0 0.8
v -0.1 0 0.6
v 0 0 0.6
v 0.1 0 0.6
v -0.1 0 -0.8
v 0 0 -0.8
v 0 1.2 0.6
v 0.1 1.2 0.6
v 0 1.2 0.5
v 0.1 1.2 0.5
v 0 1.3 0.5
v 0.1 1.3 0.5
v 0 1.3 0.4
v 0.1 1.3 0.4
v 0 1.4 0.4
v 0.1 1.4 0.4
v 0 1.4 -0.8
v 0.1 1.4 -0.8
v -0.1 1.4 0.8
v 0.1 1.4 0.8
v -0.1 1.4 0.7
v 0.1 1.4 0.7
v -0.1 1.5 0.7
v 0.1 1.5 0.7
v -0.1 1.5 0.6
v 0.1 1.5 0.6
v -0.1 1.6 0.6
v 0.1 1.6 0.6
v -0.1 1.6 -0.8
v 0.1 1.6 -0.8

# faces
f 4/2/1 2/2/1 1/2/1
f 4/1/1 3/1/1 2/1/1
f 5/1/1 3/1/1 4/1/1
f 6/2/1 5/2/1 4/2/1
f 6/1/1 3/1/1 5/1/1
f 7/1/1 3/1/1 6/1/1
f 8/2/1 4/2/1 1/2/1
f 8/2/1 6/2/1 4/2/1
f 8/2/1 7/2/1 6/2/1
f 9/2/1 7/2/1 8/2/1
f 10/1/1 3/1/1 7/1/1
f 10/2/1 7/2/1 9/2/1
f 11/1/1 3/1/1 10/1/1
f 12/2/1 10/2/1 9/2/1
f 12/2/1 11/2/1 10/2/1
f 13/2/1 11/2/1 12/2/1
f 14/2/1 11/2/1 13/2/1
f 15/2/1 11/2/1 14/2/1
f 16/1/2 17/1/2 18/1/2
f 18/1/2 17/1/2 19/1/2
f 19/1/2 17/1/2 20/1/2
f 20/1/2 17/1/2 21/1/2
f 21/1/2 17/1/2 22/1/2
f 22/1/2 17/1/2 23/1/2
f 24/2/2 25/2/2 26/2/2
f 26/2/2 27/2/2 28/2/2
f 24/2/2 26/2/2 30/2/2
f 28/2/2 29/2/2 30/2/2
f 26/2/2 28/2/2 30/2/2
f 30/2/2 29/2/2 31/2/2
f 31/2/2 29/2/2 32/2/2
f 32/2/2 33/2/2 34/2/2
f 31/2/2 32/2/2 34/2/2
f 34/2/2 33/2/2 35/2/2
f 35/2/2 33/2/2 36/2/2
f 36/2/2 33/2/2 37/2/2
f 40/2/3 39/2/3 38/2/3
f 41/2/3 39/2/3 40/2/3
f 44/2/3 43/2/3 42/2/3
f 45/2/3 43/2/3 44/2/3
f 48/2/3 47/2/3 46/2/3
f 49/2/3 47/2/3 48/2/3
f 50/2/4 51/2/4 52/2/4
f 52/2/4 51/2/4 53/2/4
f 54/2/4 55/2/4 56/2/4
f 56/2/4 55/2/4 57/2/4
f 58/2/4 59/2/4 60/2/4
f 60/2/4 59/2/4 61/2/4
f 62/1/4 63/1/4 65/1/4
f 63/2/4 64/2/4 66/2/4
f 65/1/4 63/1/4 66/1/4
f 66/2/4 64/2/4 67/2/4
f 67/2/4 64/2/4 68/2/4
f 71/2/5 70/2/5 69/2/5
f 72/2/5 70/2/5 71/2/5
f 73/2/5 70/2/5 72/2/5
f 74/1/5 72/1/5 71/1/5
f 75/1/5 72/1/5 74/1/5
f 78/2/5 77/2/5 76/2/5
f 79/2/5 77/2/5 78/2/5
f 82/2/5 81/2/5 80/2/5
f 83/2/5 81/2/5 82/2/5
f 86/2/5 85/2/5 84/2/5
f 87/2/5 85/2/5 86/2/5
f 88/2/6 89/2/6 90/2/6
f 90/2/6 89/2/6 91/2/6
f 92/2/6 93/2/6 94/2/6
f 94/2/6 93/2/6 95/2/6
f 96/2/6 97/2/6 98/2/6
f 98/2/6 97/2/6 99/2/6
