# MagicaVoxel @ Ephtracy

# group
o 

# material
mtllib DisplayMiniAngle.mtl
usemtl palette

# normals
vn -1 0 0
vn 1 0 0
vn 0 0 1
vn 0 0 -1
vn 0 -1 0
vn 0 1 0

# texcoords
vt 0.876953 0.5
vt 0.970703 0.5

# verts
v -0.1 0 0.4
v -0.1 0 0.3
v -0.1 0 -0.4
v -0.1 0.7 0.4
v -0.1 0.7 0.3
v -0.1 0.7 -0.4
v -0.1 0.8 0.3
v -0.1 0.8 -0.4
v 0 0 0.3
v 0 0 -0.4
v 0 0.7 0.3
v 0 0.7 -0.4
v 0.1 0 0.4
v 0.1 0 0.3
v 0.1 0.7 0.4
v 0.1 0.7 0.3
v 0.1 0.7 -0.4
v 0.1 0.8 0.3
v 0.1 0.8 -0.4
v -0.1 0 0.4
v -0.1 0.7 0.4
v 0.1 0 0.4
v 0.1 0.7 0.4
v -0.1 0.7 0.3
v -0.1 0.8 0.3
v 0.1 0.7 0.3
v 0.1 0.8 0.3
v 0 0 0.3
v 0 0.7 0.3
v 0.1 0 0.3
v 0.1 0.7 0.3
v -0.1 0 -0.4
v -0.1 0.7 -0.4
v -0.1 0.8 -0.4
v 0 0 -0.4
v 0 0.7 -0.4
v 0.1 0.7 -0.4
v 0.1 0.8 -0.4
v -0.1 0 0.4
v 0.1 0 0.4
v -0.1 0 0.3
v 0 0 0.3
v 0.1 0 0.3
v -0.1 0 -0.4
v 0 0 -0.4
v 0 0.7 0.3
v 0.1 0.7 0.3
v 0 0.7 -0.4
v 0.1 0.7 -0.4
v -0.1 0.7 0.4
v 0.1 0.7 0.4
v -0.1 0.7 0.3
v 0.1 0.7 0.3
v -0.1 0.8 0.3
v 0.1 0.8 0.3
v -0.1 0.8 -0.4
v 0.1 0.8 -0.4

# faces
f 4/2/1 2/2/1 1/2/1
f 5/1/1 3/1/1 2/1/1
f 5/2/1 2/2/1 4/2/1
f 6/1/1 3/1/1 5/1/1
f 7/2/1 6/2/1 5/2/1
f 8/2/1 6/2/1 7/2/1
f 9/1/2 10/1/2 11/1/2
f 11/1/2 10/1/2 12/1/2
f 13/2/2 14/2/2 15/2/2
f 15/2/2 14/2/2 16/2/2
f 16/2/2 17/2/2 18/2/2
f 18/2/2 17/2/2 19/2/2
f 22/2/3 21/2/3 20/2/3
f 23/2/3 21/2/3 22/2/3
f 26/2/3 25/2/3 24/2/3
f 27/2/3 25/2/3 26/2/3
f 28/2/4 29/2/4 30/2/4
f 30/2/4 29/2/4 31/2/4
f 32/1/4 33/1/4 35/1/4
f 33/2/4 34/2/4 36/2/4
f 35/1/4 33/1/4 36/1/4
f 36/2/4 34/2/4 37/2/4
f 37/2/4 34/2/4 38/2/4
f 41/2/5 40/2/5 39/2/5
f 42/2/5 40/2/5 41/2/5
f 43/2/5 40/2/5 42/2/5
f 44/1/5 42/1/5 41/1/5
f 45/1/5 42/1/5 44/1/5
f 48/2/5 47/2/5 46/2/5
f 49/2/5 47/2/5 48/2/5
f 50/2/6 51/2/6 52/2/6
f 52/2/6 51/2/6 53/2/6
f 54/2/6 55/2/6 56/2/6
f 56/2/6 55/2/6 57/2/6
