# MagicaVoxel @ Ephtracy

# group
o 

# material
mtllib DisplayEdge.mtl
usemtl palette

# normals
vn -1 0 0
vn 1 0 0
vn 0 0 1
vn 0 0 -1
vn 0 -1 0
vn 0 1 0

# texcoords
vt 0.876953 0.5
vt 0.970703 0.5

# verts
v -0.1 0 0.8
v -0.1 0 -0.8
v -0.1 1.4 0.8
v -0.1 1.4 -0.8
v -0.1 1.6 0.8
v -0.1 1.6 -0.8
v 0 0 0.8
v 0 0 -0.8
v 0 1.4 0.8
v 0 1.4 -0.8
v 0.1 1.4 0.8
v 0.1 1.4 -0.8
v 0.1 1.6 0.8
v 0.1 1.6 -0.8
v -0.1 0 0.8
v -0.1 1.4 0.8
v -0.1 1.6 0.8
v 0 0 0.8
v 0 1.4 0.8
v 0.1 1.4 0.8
v 0.1 1.6 0.8
v -0.1 0 -0.8
v -0.1 1.4 -0.8
v -0.1 1.6 -0.8
v 0 0 -0.8
v 0 1.4 -0.8
v 0.1 1.4 -0.8
v 0.1 1.6 -0.8
v -0.1 0 0.8
v 0 0 0.8
v -0.1 0 -0.8
v 0 0 -0.8
v 0 1.4 0.8
v 0.1 1.4 0.8
v 0 1.4 -0.8
v 0.1 1.4 -0.8
v -0.1 1.6 0.8
v 0.1 1.6 0.8
v -0.1 1.6 -0.8
v 0.1 1.6 -0.8

# faces
f 3/1/1 2/1/1 1/1/1
f 4/1/1 2/1/1 3/1/1
f 5/2/1 4/2/1 3/2/1
f 6/2/1 4/2/1 5/2/1
f 7/1/2 8/1/2 9/1/2
f 9/1/2 8/1/2 10/1/2
f 11/2/2 12/2/2 13/2/2
f 13/2/2 12/2/2 14/2/2
f 18/1/3 16/1/3 15/1/3
f 19/2/3 17/2/3 16/2/3
f 19/1/3 16/1/3 18/1/3
f 20/2/3 17/2/3 19/2/3
f 21/2/3 17/2/3 20/2/3
f 22/1/4 23/1/4 25/1/4
f 23/2/4 24/2/4 26/2/4
f 25/1/4 23/1/4 26/1/4
f 26/2/4 24/2/4 27/2/4
f 27/2/4 24/2/4 28/2/4
f 31/1/5 30/1/5 29/1/5
f 32/1/5 30/1/5 31/1/5
f 35/2/5 34/2/5 33/2/5
f 36/2/5 34/2/5 35/2/5
f 37/2/6 38/2/6 39/2/6
f 39/2/6 38/2/6 40/2/6
