# MagicaVoxel @ Ephtracy

# group
o 

# material
mtllib DisplayMiniEdge.mtl
usemtl palette

# normals
vn -1 0 0
vn 1 0 0
vn 0 0 1
vn 0 0 -1
vn 0 -1 0
vn 0 1 0

# texcoords
vt 0.876953 0.5
vt 0.970703 0.5

# verts
v -0.1 0 0.4
v -0.1 0 0.3
v -0.1 0 -0.4
v -0.1 0.8 0.4
v -0.1 0.8 0.3
v -0.1 0.8 -0.4
v 0 0 0.3
v 0 0 -0.4
v 0 0.8 0.3
v 0 0.8 -0.4
v 0.1 0 0.4
v 0.1 0 0.3
v 0.1 0.8 0.4
v 0.1 0.8 0.3
v -0.1 0 0.4
v -0.1 0.8 0.4
v 0.1 0 0.4
v 0.1 0.8 0.4
v 0 0 0.3
v 0 0.8 0.3
v 0.1 0 0.3
v 0.1 0.8 0.3
v -0.1 0 -0.4
v -0.1 0.8 -0.4
v 0 0 -0.4
v 0 0.8 -0.4
v -0.1 0 0.4
v 0.1 0 0.4
v -0.1 0 0.3
v 0 0 0.3
v 0.1 0 0.3
v -0.1 0 -0.4
v 0 0 -0.4
v -0.1 0.8 0.4
v 0.1 0.8 0.4
v -0.1 0.8 0.3
v 0 0.8 0.3
v 0.1 0.8 0.3
v -0.1 0.8 -0.4
v 0 0.8 -0.4

# faces
f 4/2/1 2/2/1 1/2/1
f 5/1/1 3/1/1 2/1/1
f 5/2/1 2/2/1 4/2/1
f 6/1/1 3/1/1 5/1/1
f 7/1/2 8/1/2 9/1/2
f 9/1/2 8/1/2 10/1/2
f 11/2/2 12/2/2 13/2/2
f 13/2/2 12/2/2 14/2/2
f 17/2/3 16/2/3 15/2/3
f 18/2/3 16/2/3 17/2/3
f 19/2/4 20/2/4 21/2/4
f 21/2/4 20/2/4 22/2/4
f 23/1/4 24/1/4 25/1/4
f 25/1/4 24/1/4 26/1/4
f 29/2/5 28/2/5 27/2/5
f 30/2/5 28/2/5 29/2/5
f 31/2/5 28/2/5 30/2/5
f 32/1/5 30/1/5 29/1/5
f 33/1/5 30/1/5 32/1/5
f 34/2/6 35/2/6 36/2/6
f 36/2/6 35/2/6 37/2/6
f 37/2/6 35/2/6 38/2/6
f 36/1/6 37/1/6 39/1/6
f 39/1/6 37/1/6 40/1/6
