# MagicaVoxel @ Ephtracy

# group
o 

# material
mtllib HearthGoldFull.mtl
usemtl palette

# normals
vn -1 0 0
vn 1 0 0
vn 0 0 1
vn 0 0 -1
vn 0 -1 0
vn 0 1 0

# texcoords
vt 0.912109 0.5
vt 0.916016 0.5
vt 0.919922 0.5
vt 0.923828 0.5

# verts
v 0 0 0
v 0 0 -0.1
v 0 0.1 0.1
v 0 0.1 0
v 0 0.1 -0.1
v 0 0.1 -0.2
v 0 0.2 0.2
v 0 0.2 0.1
v 0 0.2 0
v 0 0.2 -0.1
v 0 0.2 -0.2
v 0 0.2 -0.3
v 0 0.3 0.3
v 0 0.3 0.2
v 0 0.3 0.1
v 0 0.3 -0.2
v 0 0.3 -0.3
v 0 0.3 -0.4
v 0 0.4 0.4
v 0 0.4 0.3
v 0 0.4 0.2
v 0 0.4 -0.3
v 0 0.4 -0.4
v 0 0.4 -0.5
v 0 0.5 0.5
v 0 0.5 0.4
v 0 0.5 0.3
v 0 0.5 -0.4
v 0 0.5 -0.5
v 0 0.5 -0.6
v 0 0.6 0.4
v 0 0.6 0.3
v 0 0.7 0
v 0 0.7 -0.1
v 0 0.7 -0.5
v 0 0.7 -0.6
v 0 0.8 0.4
v 0 0.8 0.3
v 0 0.8 0.2
v 0 0.8 0.1
v 0 0.8 0
v 0 0.8 -0.1
v 0 0.8 -0.2
v 0 0.8 -0.4
v 0 0.8 -0.5
v 0 0.9 0.5
v 0 0.9 0.4
v 0 0.9 0.3
v 0 0.9 0.2
v 0 0.9 0.1
v 0 0.9 0
v 0 0.9 -0.1
v 0 0.9 -0.2
v 0 0.9 -0.4
v 0 0.9 -0.5
v 0 0.9 -0.6
v 0 1 0.4
v 0 1 0.1
v 0 1 -0.2
v 0 1 -0.5
v 0.1 0 0
v 0.1 0 -0.1
v 0.1 0.1 0.1
v 0.1 0.1 0
v 0.1 0.1 -0.1
v 0.1 0.1 -0.2
v 0.1 0.2 0.2
v 0.1 0.2 0.1
v 0.1 0.2 0
v 0.1 0.2 -0.1
v 0.1 0.2 -0.2
v 0.1 0.2 -0.3
v 0.1 0.3 0.3
v 0.1 0.3 0.2
v 0.1 0.3 0.1
v 0.1 0.3 -0.2
v 0.1 0.3 -0.3
v 0.1 0.3 -0.4
v 0.1 0.4 0.4
v 0.1 0.4 0.3
v 0.1 0.4 0.2
v 0.1 0.4 -0.3
v 0.1 0.4 -0.4
v 0.1 0.4 -0.5
v 0.1 0.5 0.5
v 0.1 0.5 0.4
v 0.1 0.5 0.3
v 0.1 0.5 -0.4
v 0.1 0.5 -0.5
v 0.1 0.5 -0.6
v 0.1 0.6 0.4
v 0.1 0.6 0.3
v 0.1 0.7 0
v 0.1 0.7 -0.1
v 0.1 0.7 -0.5
v 0.1 0.7 -0.6
v 0.1 0.8 0.4
v 0.1 0.8 0.3
v 0.1 0.8 0.2
v 0.1 0.8 0.1
v 0.1 0.8 0
v 0.1 0.8 -0.1
v 0.1 0.8 -0.2
v 0.1 0.8 -0.4
v 0.1 0.8 -0.5
v 0.1 0.9 0.5
v 0.1 0.9 0.4
v 0.1 0.9 0.3
v 0.1 0.9 0.2
v 0.1 0.9 0.1
v 0.1 0.9 0
v 0.1 0.9 -0.1
v 0.1 0.9 -0.2
v 0.1 0.9 -0.4
v 0.1 0.9 -0.5
v 0.1 0.9 -0.6
v 0.1 1 0.4
v 0.1 1 0.1
v 0.1 1 -0.2
v 0.1 1 -0.5
v 0 0.5 0.5
v 0 0.9 0.5
v 0.1 0.5 0.5
v 0.1 0.9 0.5
v 0 0.4 0.4
v 0 0.5 0.4
v 0 0.9 0.4
v 0 1 0.4
v 0.1 0.4 0.4
v 0.1 0.5 0.4
v 0.1 0.9 0.4
v 0.1 1 0.4
v 0 0.3 0.3
v 0 0.4 0.3
v 0.1 0.3 0.3
v 0.1 0.4 0.3
v 0 0.2 0.2
v 0 0.3 0.2
v 0.1 0.2 0.2
v 0.1 0.3 0.2
v 0 0.1 0.1
v 0 0.2 0.1
v 0.1 0.1 0.1
v 0.1 0.2 0.1
v 0 0 0
v 0 0.1 0
v 0.1 0 0
v 0.1 0.1 0
v 0 0.8 -0.1
v 0 0.9 -0.1
v 0.1 0.8 -0.1
v 0.1 0.9 -0.1
v 0 0.9 -0.2
v 0 1 -0.2
v 0.1 0.9 -0.2
v 0.1 1 -0.2
v 0 0.9 0.1
v 0 1 0.1
v 0.1 0.9 0.1
v 0.1 1 0.1
v 0 0.8 0
v 0 0.9 0
v 0.1 0.8 0
v 0.1 0.9 0
v 0 0 -0.1
v 0 0.1 -0.1
v 0.1 0 -0.1
v 0.1 0.1 -0.1
v 0 0.1 -0.2
v 0 0.2 -0.2
v 0.1 0.1 -0.2
v 0.1 0.2 -0.2
v 0 0.2 -0.3
v 0 0.3 -0.3
v 0.1 0.2 -0.3
v 0.1 0.3 -0.3
v 0 0.3 -0.4
v 0 0.4 -0.4
v 0.1 0.3 -0.4
v 0.1 0.4 -0.4
v 0 0.4 -0.5
v 0 0.5 -0.5
v 0 0.9 -0.5
v 0 1 -0.5
v 0.1 0.4 -0.5
v 0.1 0.5 -0.5
v 0.1 0.9 -0.5
v 0.1 1 -0.5
v 0 0.5 -0.6
v 0 0.7 -0.6
v 0 0.9 -0.6
v 0.1 0.5 -0.6
v 0.1 0.7 -0.6
v 0.1 0.9 -0.6
v 0 0 0
v 0.1 0 0
v 0 0 -0.1
v 0.1 0 -0.1
v 0 0.1 0.1
v 0.1 0.1 0.1
v 0 0.1 0
v 0.1 0.1 0
v 0 0.1 -0.1
v 0.1 0.1 -0.1
v 0 0.1 -0.2
v 0.1 0.1 -0.2
v 0 0.2 0.2
v 0.1 0.2 0.2
v 0 0.2 0.1
v 0.1 0.2 0.1
v 0 0.2 -0.2
v 0.1 0.2 -0.2
v 0 0.2 -0.3
v 0.1 0.2 -0.3
v 0 0.3 0.3
v 0.1 0.3 0.3
v 0 0.3 0.2
v 0.1 0.3 0.2
v 0 0.3 -0.3
v 0.1 0.3 -0.3
v 0 0.3 -0.4
v 0.1 0.3 -0.4
v 0 0.4 0.4
v 0.1 0.4 0.4
v 0 0.4 0.3
v 0.1 0.4 0.3
v 0 0.4 -0.4
v 0.1 0.4 -0.4
v 0 0.4 -0.5
v 0.1 0.4 -0.5
v 0 0.5 0.5
v 0.1 0.5 0.5
v 0 0.5 0.4
v 0.1 0.5 0.4
v 0 0.5 -0.5
v 0.1 0.5 -0.5
v 0 0.5 -0.6
v 0.1 0.5 -0.6
v 0 0.8 0
v 0.1 0.8 0
v 0 0.8 -0.1
v 0.1 0.8 -0.1
v 0 0.9 0.5
v 0.1 0.9 0.5
v 0 0.9 0.4
v 0.1 0.9 0.4
v 0 0.9 0.1
v 0.1 0.9 0.1
v 0 0.9 0
v 0.1 0.9 0
v 0 0.9 -0.1
v 0.1 0.9 -0.1
v 0 0.9 -0.2
v 0.1 0.9 -0.2
v 0 0.9 -0.5
v 0.1 0.9 -0.5
v 0 0.9 -0.6
v 0.1 0.9 -0.6
v 0 1 0.4
v 0.1 1 0.4
v 0 1 0.1
v 0.1 1 0.1
v 0 1 -0.2
v 0.1 1 -0.2
v 0 1 -0.5
v 0.1 1 -0.5

# faces
f 4/2/1 2/2/1 1/2/1
f 5/2/1 2/2/1 4/2/1
f 8/1/1 4/1/1 3/1/1
f 9/4/1 5/4/1 4/4/1
f 9/1/1 4/1/1 8/1/1
f 10/2/1 6/2/1 5/2/1
f 10/4/1 5/4/1 9/4/1
f 11/2/1 6/2/1 10/2/1
f 14/1/1 8/1/1 7/1/1
f 15/4/1 9/4/1 8/4/1
f 15/4/1 10/4/1 9/4/1
f 15/1/1 8/1/1 14/1/1
f 15/4/1 11/4/1 10/4/1
f 16/2/1 12/2/1 11/2/1
f 16/4/1 11/4/1 15/4/1
f 17/2/1 12/2/1 16/2/1
f 20/1/1 14/1/1 13/1/1
f 21/4/1 15/4/1 14/4/1
f 21/4/1 16/4/1 15/4/1
f 21/1/1 14/1/1 20/1/1
f 21/4/1 17/4/1 16/4/1
f 22/2/1 18/2/1 17/2/1
f 22/4/1 17/4/1 21/4/1
f 23/2/1 18/2/1 22/2/1
f 26/1/1 20/1/1 19/1/1
f 27/4/1 21/4/1 20/4/1
f 27/4/1 22/4/1 21/4/1
f 27/1/1 20/1/1 26/1/1
f 27/4/1 23/4/1 22/4/1
f 28/2/1 24/2/1 23/2/1
f 28/4/1 23/4/1 27/4/1
f 29/2/1 24/2/1 28/2/1
f 31/1/1 26/1/1 25/1/1
f 31/4/1 27/4/1 26/4/1
f 31/4/1 29/4/1 28/4/1
f 31/4/1 28/4/1 27/4/1
f 32/4/1 29/4/1 31/4/1
f 33/4/1 29/4/1 32/4/1
f 34/4/1 29/4/1 33/4/1
f 35/2/1 30/2/1 29/2/1
f 35/4/1 29/4/1 34/4/1
f 36/2/1 30/2/1 35/2/1
f 37/1/1 31/1/1 25/1/1
f 37/3/1 32/3/1 31/3/1
f 38/4/1 33/4/1 32/4/1
f 38/3/1 32/3/1 37/3/1
f 39/4/1 33/4/1 38/4/1
f 40/4/1 33/4/1 39/4/1
f 41/1/1 34/1/1 33/1/1
f 41/4/1 33/4/1 40/4/1
f 42/4/1 35/4/1 34/4/1
f 42/1/1 34/1/1 41/1/1
f 43/4/1 35/4/1 42/4/1
f 44/4/1 35/4/1 43/4/1
f 45/1/1 36/1/1 35/1/1
f 45/4/1 35/4/1 44/4/1
f 46/1/1 37/1/1 25/1/1
f 46/1/1 38/1/1 37/1/1
f 47/1/1 38/1/1 46/1/1
f 48/3/1 39/3/1 38/3/1
f 48/1/1 38/1/1 47/1/1
f 49/4/1 40/4/1 39/4/1
f 49/3/1 39/3/1 48/3/1
f 50/1/1 41/1/1 40/1/1
f 50/4/1 40/4/1 49/4/1
f 51/1/1 41/1/1 50/1/1
f 52/1/1 43/1/1 42/1/1
f 53/4/1 44/4/1 43/4/1
f 53/1/1 43/1/1 52/1/1
f 54/1/1 45/1/1 44/1/1
f 54/4/1 44/4/1 53/4/1
f 55/1/1 36/1/1 45/1/1
f 55/1/1 45/1/1 54/1/1
f 56/1/1 36/1/1 55/1/1
f 57/1/1 48/1/1 47/1/1
f 57/1/1 49/1/1 48/1/1
f 57/1/1 50/1/1 49/1/1
f 58/1/1 50/1/1 57/1/1
f 59/1/1 54/1/1 53/1/1
f 59/1/1 55/1/1 54/1/1
f 60/1/1 55/1/1 59/1/1
f 61/2/2 62/2/2 64/2/2
f 64/2/2 62/2/2 65/2/2
f 63/1/2 64/1/2 68/1/2
f 64/4/2 65/4/2 69/4/2
f 68/1/2 64/1/2 69/1/2
f 65/2/2 66/2/2 70/2/2
f 69/4/2 65/4/2 70/4/2
f 70/2/2 66/2/2 71/2/2
f 67/1/2 68/1/2 74/1/2
f 68/4/2 69/4/2 75/4/2
f 69/4/2 70/4/2 75/4/2
f 74/1/2 68/1/2 75/1/2
f 70/4/2 71/4/2 75/4/2
f 71/2/2 72/2/2 76/2/2
f 75/4/2 71/4/2 76/4/2
f 76/2/2 72/2/2 77/2/2
f 73/1/2 74/1/2 80/1/2
f 74/4/2 75/4/2 81/4/2
f 75/4/2 76/4/2 81/4/2
f 80/1/2 74/1/2 81/1/2
f 76/4/2 77/4/2 81/4/2
f 77/2/2 78/2/2 82/2/2
f 81/4/2 77/4/2 82/4/2
f 82/2/2 78/2/2 83/2/2
f 79/1/2 80/1/2 86/1/2
f 80/4/2 81/4/2 87/4/2
f 81/4/2 82/4/2 87/4/2
f 86/1/2 80/1/2 87/1/2
f 82/4/2 83/4/2 87/4/2
f 83/2/2 84/2/2 88/2/2
f 87/4/2 83/4/2 88/4/2
f 88/2/2 84/2/2 89/2/2
f 85/1/2 86/1/2 91/1/2
f 86/4/2 87/4/2 91/4/2
f 88/4/2 89/4/2 91/4/2
f 87/4/2 88/4/2 91/4/2
f 91/4/2 89/4/2 92/4/2
f 92/4/2 89/4/2 93/4/2
f 93/4/2 89/4/2 94/4/2
f 89/2/2 90/2/2 95/2/2
f 94/4/2 89/4/2 95/4/2
f 95/2/2 90/2/2 96/2/2
f 85/1/2 91/1/2 97/1/2
f 91/3/2 92/3/2 97/3/2
f 92/4/2 93/4/2 98/4/2
f 97/3/2 92/3/2 98/3/2
f 98/4/2 93/4/2 99/4/2
f 99/4/2 93/4/2 100/4/2
f 93/1/2 94/1/2 101/1/2
f 100/4/2 93/4/2 101/4/2
f 94/4/2 95/4/2 102/4/2
f 101/1/2 94/1/2 102/1/2
f 102/4/2 95/4/2 103/4/2
f 103/4/2 95/4/2 104/4/2
f 95/1/2 96/1/2 105/1/2
f 104/4/2 95/4/2 105/4/2
f 85/1/2 97/1/2 106/1/2
f 97/1/2 98/1/2 106/1/2
f 106/1/2 98/1/2 107/1/2
f 98/3/2 99/3/2 108/3/2
f 107/1/2 98/1/2 108/1/2
f 99/4/2 100/4/2 109/4/2
f 108/3/2 99/3/2 109/3/2
f 100/1/2 101/1/2 110/1/2
f 109/4/2 100/4/2 110/4/2
f 110/1/2 101/1/2 111/1/2
f 102/1/2 103/1/2 112/1/2
f 103/4/2 104/4/2 113/4/2
f 112/1/2 103/1/2 113/1/2
f 104/1/2 105/1/2 114/1/2
f 113/4/2 104/4/2 114/4/2
f 105/1/2 96/1/2 115/1/2
f 114/1/2 105/1/2 115/1/2
f 115/1/2 96/1/2 116/1/2
f 107/1/2 108/1/2 117/1/2
f 108/1/2 109/1/2 117/1/2
f 109/1/2 110/1/2 117/1/2
f 117/1/2 110/1/2 118/1/2
f 113/1/2 114/1/2 119/1/2
f 114/1/2 115/1/2 119/1/2
f 119/1/2 115/1/2 120/1/2
f 123/1/3 122/1/3 121/1/3
f 124/1/3 122/1/3 123/1/3
f 129/1/3 126/1/3 125/1/3
f 130/1/3 126/1/3 129/1/3
f 131/1/3 128/1/3 127/1/3
f 132/1/3 128/1/3 131/1/3
f 135/1/3 134/1/3 133/1/3
f 136/1/3 134/1/3 135/1/3
f 139/1/3 138/1/3 137/1/3
f 140/1/3 138/1/3 139/1/3
f 143/1/3 142/1/3 141/1/3
f 144/1/3 142/1/3 143/1/3
f 147/2/3 146/2/3 145/2/3
f 148/2/3 146/2/3 147/2/3
f 151/1/3 150/1/3 149/1/3
f 152/1/3 150/1/3 151/1/3
f 155/1/3 154/1/3 153/1/3
f 156/1/3 154/1/3 155/1/3
f 157/1/4 158/1/4 159/1/4
f 159/1/4 158/1/4 160/1/4
f 161/1/4 162/1/4 163/1/4
f 163/1/4 162/1/4 164/1/4
f 165/2/4 166/2/4 167/2/4
f 167/2/4 166/2/4 168/2/4
f 169/2/4 170/2/4 171/2/4
f 171/2/4 170/2/4 172/2/4
f 173/2/4 174/2/4 175/2/4
f 175/2/4 174/2/4 176/2/4
f 177/2/4 178/2/4 179/2/4
f 179/2/4 178/2/4 180/2/4
f 181/2/4 182/2/4 185/2/4
f 185/2/4 182/2/4 186/2/4
f 183/1/4 184/1/4 187/1/4
f 187/1/4 184/1/4 188/1/4
f 189/2/4 190/2/4 192/2/4
f 190/1/4 191/1/4 193/1/4
f 192/2/4 190/2/4 193/2/4
f 193/1/4 191/1/4 194/1/4
f 197/2/5 196/2/5 195/2/5
f 198/2/5 196/2/5 197/2/5
f 201/1/5 200/1/5 199/1/5
f 202/1/5 200/1/5 201/1/5
f 205/2/5 204/2/5 203/2/5
f 206/2/5 204/2/5 205/2/5
f 209/1/5 208/1/5 207/1/5
f 210/1/5 208/1/5 209/1/5
f 213/2/5 212/2/5 211/2/5
f 214/2/5 212/2/5 213/2/5
f 217/1/5 216/1/5 215/1/5
f 218/1/5 216/1/5 217/1/5
f 221/2/5 220/2/5 219/2/5
f 222/2/5 220/2/5 221/2/5
f 225/1/5 224/1/5 223/1/5
f 226/1/5 224/1/5 225/1/5
f 229/2/5 228/2/5 227/2/5
f 230/2/5 228/2/5 229/2/5
f 233/1/5 232/1/5 231/1/5
f 234/1/5 232/1/5 233/1/5
f 237/2/5 236/2/5 235/2/5
f 238/2/5 236/2/5 237/2/5
f 239/1/6 240/1/6 241/1/6
f 241/1/6 240/1/6 242/1/6
f 243/1/6 244/1/6 245/1/6
f 245/1/6 244/1/6 246/1/6
f 247/1/6 248/1/6 249/1/6
f 249/1/6 248/1/6 250/1/6
f 251/1/6 252/1/6 253/1/6
f 253/1/6 252/1/6 254/1/6
f 255/1/6 256/1/6 257/1/6
f 257/1/6 256/1/6 258/1/6
f 259/1/6 260/1/6 261/1/6
f 261/1/6 260/1/6 262/1/6
f 263/1/6 264/1/6 265/1/6
f 265/1/6 264/1/6 266/1/6
