# MagicaVoxel @ Ephtracy

# group
o 

# material
mtllib HearthHalf.mtl
usemtl palette

# normals
vn -1 0 0
vn 1 0 0
vn 0 0 1
vn 0 0 -1
vn 0 -1 0
vn 0 1 0

# texcoords
vt 0.943359 0.5
vt 0.951172 0.5
vt 0.955078 0.5
vt 0.958984 0.5

# verts
v 0 0 0
v 0 0 -0.1
v 0 0.1 0.1
v 0 0.1 0
v 0 0.1 -0.1
v 0 0.1 -0.2
v 0 0.2 0.2
v 0 0.2 0.1
v 0 0.2 -0.1
v 0 0.2 -0.2
v 0 0.2 -0.3
v 0 0.3 0.3
v 0 0.3 0.2
v 0 0.3 -0.2
v 0 0.3 -0.3
v 0 0.3 -0.4
v 0 0.4 0.4
v 0 0.4 0.3
v 0 0.4 -0.3
v 0 0.4 -0.4
v 0 0.4 -0.5
v 0 0.5 0.5
v 0 0.5 0.4
v 0 0.5 -0.4
v 0 0.5 -0.5
v 0 0.5 -0.6
v 0 0.6 0.4
v 0 0.6 0.3
v 0 0.7 -0.5
v 0 0.7 -0.6
v 0 0.8 0.4
v 0 0.8 0.3
v 0 0.8 0.2
v 0 0.8 0
v 0 0.8 -0.1
v 0 0.9 0.5
v 0 0.9 0.4
v 0 0.9 0.3
v 0 0.9 0.2
v 0 0.9 0.1
v 0 0.9 0
v 0 0.9 -0.1
v 0 0.9 -0.2
v 0 0.9 -0.5
v 0 0.9 -0.6
v 0 1 0.4
v 0 1 0.1
v 0 1 -0.2
v 0 1 -0.5
v 0.1 0 0
v 0.1 0 -0.1
v 0.1 0.1 0.1
v 0.1 0.1 0
v 0.1 0.1 -0.1
v 0.1 0.1 -0.2
v 0.1 0.2 0.2
v 0.1 0.2 0.1
v 0.1 0.2 -0.1
v 0.1 0.2 -0.2
v 0.1 0.2 -0.3
v 0.1 0.3 0.3
v 0.1 0.3 0.2
v 0.1 0.3 -0.2
v 0.1 0.3 -0.3
v 0.1 0.3 -0.4
v 0.1 0.4 0.4
v 0.1 0.4 0.3
v 0.1 0.4 -0.3
v 0.1 0.4 -0.4
v 0.1 0.4 -0.5
v 0.1 0.5 0.5
v 0.1 0.5 0.4
v 0.1 0.5 -0.4
v 0.1 0.5 -0.5
v 0.1 0.5 -0.6
v 0.1 0.6 0.4
v 0.1 0.6 0.3
v 0.1 0.7 -0.5
v 0.1 0.7 -0.6
v 0.1 0.8 0.4
v 0.1 0.8 0.3
v 0.1 0.8 0.2
v 0.1 0.8 0
v 0.1 0.8 -0.1
v 0.1 0.9 0.5
v 0.1 0.9 0.4
v 0.1 0.9 0.3
v 0.1 0.9 0.2
v 0.1 0.9 0.1
v 0.1 0.9 0
v 0.1 0.9 -0.1
v 0.1 0.9 -0.2
v 0.1 0.9 -0.5
v 0.1 0.9 -0.6
v 0.1 1 0.4
v 0.1 1 0.1
v 0.1 1 -0.2
v 0.1 1 -0.5
v 0 0.5 0.5
v 0 0.9 0.5
v 0.1 0.5 0.5
v 0.1 0.9 0.5
v 0 0.4 0.4
v 0 0.5 0.4
v 0 0.9 0.4
v 0 1 0.4
v 0.1 0.4 0.4
v 0.1 0.5 0.4
v 0.1 0.9 0.4
v 0.1 1 0.4
v 0 0.3 0.3
v 0 0.4 0.3
v 0.1 0.3 0.3
v 0.1 0.4 0.3
v 0 0.2 0.2
v 0 0.3 0.2
v 0.1 0.2 0.2
v 0.1 0.3 0.2
v 0 0.1 0.1
v 0 0.2 0.1
v 0.1 0.1 0.1
v 0.1 0.2 0.1
v 0 0 0
v 0 0.1 0
v 0.1 0 0
v 0.1 0.1 0
v 0 0.8 -0.1
v 0 0.9 -0.1
v 0.1 0.8 -0.1
v 0.1 0.9 -0.1
v 0 0.9 -0.2
v 0 1 -0.2
v 0.1 0.9 -0.2
v 0.1 1 -0.2
v 0 0.9 0.1
v 0 1 0.1
v 0.1 0.9 0.1
v 0.1 1 0.1
v 0 0.8 0
v 0 0.9 0
v 0.1 0.8 0
v 0.1 0.9 0
v 0 0 -0.1
v 0 0.1 -0.1
v 0.1 0 -0.1
v 0.1 0.1 -0.1
v 0 0.1 -0.2
v 0 0.2 -0.2
v 0.1 0.1 -0.2
v 0.1 0.2 -0.2
v 0 0.2 -0.3
v 0 0.3 -0.3
v 0.1 0.2 -0.3
v 0.1 0.3 -0.3
v 0 0.3 -0.4
v 0 0.4 -0.4
v 0.1 0.3 -0.4
v 0.1 0.4 -0.4
v 0 0.4 -0.5
v 0 0.5 -0.5
v 0 0.9 -0.5
v 0 1 -0.5
v 0.1 0.4 -0.5
v 0.1 0.5 -0.5
v 0.1 0.9 -0.5
v 0.1 1 -0.5
v 0 0.5 -0.6
v 0 0.7 -0.6
v 0 0.9 -0.6
v 0.1 0.5 -0.6
v 0.1 0.7 -0.6
v 0.1 0.9 -0.6
v 0 0 0
v 0.1 0 0
v 0 0 -0.1
v 0.1 0 -0.1
v 0 0.1 0.1
v 0.1 0.1 0.1
v 0 0.1 0
v 0.1 0.1 0
v 0 0.1 -0.1
v 0.1 0.1 -0.1
v 0 0.1 -0.2
v 0.1 0.1 -0.2
v 0 0.2 0.2
v 0.1 0.2 0.2
v 0 0.2 0.1
v 0.1 0.2 0.1
v 0 0.2 -0.2
v 0.1 0.2 -0.2
v 0 0.2 -0.3
v 0.1 0.2 -0.3
v 0 0.3 0.3
v 0.1 0.3 0.3
v 0 0.3 0.2
v 0.1 0.3 0.2
v 0 0.3 -0.3
v 0.1 0.3 -0.3
v 0 0.3 -0.4
v 0.1 0.3 -0.4
v 0 0.4 0.4
v 0.1 0.4 0.4
v 0 0.4 0.3
v 0.1 0.4 0.3
v 0 0.4 -0.4
v 0.1 0.4 -0.4
v 0 0.4 -0.5
v 0.1 0.4 -0.5
v 0 0.5 0.5
v 0.1 0.5 0.5
v 0 0.5 0.4
v 0.1 0.5 0.4
v 0 0.5 -0.5
v 0.1 0.5 -0.5
v 0 0.5 -0.6
v 0.1 0.5 -0.6
v 0 0.8 0
v 0.1 0.8 0
v 0 0.8 -0.1
v 0.1 0.8 -0.1
v 0 0.9 0.5
v 0.1 0.9 0.5
v 0 0.9 0.4
v 0.1 0.9 0.4
v 0 0.9 0.1
v 0.1 0.9 0.1
v 0 0.9 0
v 0.1 0.9 0
v 0 0.9 -0.1
v 0.1 0.9 -0.1
v 0 0.9 -0.2
v 0.1 0.9 -0.2
v 0 0.9 -0.5
v 0.1 0.9 -0.5
v 0 0.9 -0.6
v 0.1 0.9 -0.6
v 0 1 0.4
v 0.1 1 0.4
v 0 1 0.1
v 0.1 1 0.1
v 0 1 -0.2
v 0.1 1 -0.2
v 0 1 -0.5
v 0.1 1 -0.5

# faces
f 4/4/1 2/4/1 1/4/1
f 5/4/1 2/4/1 4/4/1
f 8/1/1 4/1/1 3/1/1
f 9/4/1 6/4/1 5/4/1
f 9/3/1 5/3/1 4/3/1
f 10/4/1 6/4/1 9/4/1
f 13/1/1 8/1/1 7/1/1
f 14/4/1 11/4/1 10/4/1
f 14/3/1 10/3/1 9/3/1
f 15/4/1 11/4/1 14/4/1
f 18/1/1 13/1/1 12/1/1
f 19/4/1 16/4/1 15/4/1
f 19/3/1 15/3/1 14/3/1
f 20/4/1 16/4/1 19/4/1
f 23/1/1 18/1/1 17/1/1
f 24/4/1 21/4/1 20/4/1
f 24/3/1 20/3/1 19/3/1
f 25/4/1 21/4/1 24/4/1
f 27/1/1 23/1/1 22/1/1
f 27/1/1 18/1/1 23/1/1
f 28/1/1 13/1/1 18/1/1
f 28/1/1 18/1/1 27/1/1
f 29/4/1 26/4/1 25/4/1
f 29/3/1 25/3/1 24/3/1
f 30/4/1 26/4/1 29/4/1
f 31/1/1 27/1/1 22/1/1
f 31/2/1 28/2/1 27/2/1
f 32/1/1 13/1/1 28/1/1
f 32/2/1 28/2/1 31/2/1
f 33/1/1 8/1/1 13/1/1
f 33/1/1 13/1/1 32/1/1
f 34/1/1 4/1/1 8/1/1
f 34/1/1 8/1/1 33/1/1
f 34/3/1 9/3/1 4/3/1
f 34/3/1 29/3/1 24/3/1
f 34/3/1 24/3/1 19/3/1
f 34/3/1 14/3/1 9/3/1
f 34/3/1 30/3/1 29/3/1
f 34/3/1 19/3/1 14/3/1
f 35/3/1 30/3/1 34/3/1
f 36/1/1 31/1/1 22/1/1
f 36/1/1 32/1/1 31/1/1
f 37/1/1 32/1/1 36/1/1
f 38/2/1 33/2/1 32/2/1
f 38/1/1 32/1/1 37/1/1
f 39/1/1 34/1/1 33/1/1
f 39/2/1 33/2/1 38/2/1
f 40/1/1 34/1/1 39/1/1
f 41/1/1 34/1/1 40/1/1
f 42/3/1 30/3/1 35/3/1
f 43/3/1 30/3/1 42/3/1
f 44/3/1 30/3/1 43/3/1
f 45/3/1 30/3/1 44/3/1
f 46/1/1 38/1/1 37/1/1
f 46/1/1 39/1/1 38/1/1
f 46/1/1 40/1/1 39/1/1
f 47/1/1 40/1/1 46/1/1
f 48/3/1 44/3/1 43/3/1
f 49/3/1 44/3/1 48/3/1
f 50/4/2 51/4/2 53/4/2
f 53/4/2 51/4/2 54/4/2
f 52/1/2 53/1/2 57/1/2
f 54/4/2 55/4/2 58/4/2
f 53/3/2 54/3/2 58/3/2
f 58/4/2 55/4/2 59/4/2
f 56/1/2 57/1/2 62/1/2
f 59/4/2 60/4/2 63/4/2
f 58/3/2 59/3/2 63/3/2
f 63/4/2 60/4/2 64/4/2
f 61/1/2 62/1/2 67/1/2
f 64/4/2 65/4/2 68/4/2
f 63/3/2 64/3/2 68/3/2
f 68/4/2 65/4/2 69/4/2
f 66/1/2 67/1/2 72/1/2
f 69/4/2 70/4/2 73/4/2
f 68/3/2 69/3/2 73/3/2
f 73/4/2 70/4/2 74/4/2
f 71/1/2 72/1/2 76/1/2
f 72/1/2 67/1/2 76/1/2
f 67/1/2 62/1/2 77/1/2
f 76/1/2 67/1/2 77/1/2
f 74/4/2 75/4/2 78/4/2
f 73/3/2 74/3/2 78/3/2
f 78/4/2 75/4/2 79/4/2
f 71/1/2 76/1/2 80/1/2
f 76/2/2 77/2/2 80/2/2
f 77/1/2 62/1/2 81/1/2
f 80/2/2 77/2/2 81/2/2
f 62/1/2 57/1/2 82/1/2
f 81/1/2 62/1/2 82/1/2
f 57/1/2 53/1/2 83/1/2
f 82/1/2 57/1/2 83/1/2
f 53/3/2 58/3/2 83/3/2
f 73/3/2 78/3/2 83/3/2
f 68/3/2 73/3/2 83/3/2
f 58/3/2 63/3/2 83/3/2
f 78/3/2 79/3/2 83/3/2
f 63/3/2 68/3/2 83/3/2
f 83/3/2 79/3/2 84/3/2
f 71/1/2 80/1/2 85/1/2
f 80/1/2 81/1/2 85/1/2
f 85/1/2 81/1/2 86/1/2
f 81/2/2 82/2/2 87/2/2
f 86/1/2 81/1/2 87/1/2
f 82/1/2 83/1/2 88/1/2
f 87/2/2 82/2/2 88/2/2
f 88/1/2 83/1/2 89/1/2
f 89/1/2 83/1/2 90/1/2
f 84/3/2 79/3/2 91/3/2
f 91/3/2 79/3/2 92/3/2
f 92/3/2 79/3/2 93/3/2
f 93/3/2 79/3/2 94/3/2
f 86/1/2 87/1/2 95/1/2
f 87/1/2 88/1/2 95/1/2
f 88/1/2 89/1/2 95/1/2
f 95/1/2 89/1/2 96/1/2
f 92/3/2 93/3/2 97/3/2
f 97/3/2 93/3/2 98/3/2
f 101/1/3 100/1/3 99/1/3
f 102/1/3 100/1/3 101/1/3
f 107/1/3 104/1/3 103/1/3
f 108/1/3 104/1/3 107/1/3
f 109/1/3 106/1/3 105/1/3
f 110/1/3 106/1/3 109/1/3
f 113/1/3 112/1/3 111/1/3
f 114/1/3 112/1/3 113/1/3
f 117/1/3 116/1/3 115/1/3
f 118/1/3 116/1/3 117/1/3
f 121/1/3 120/1/3 119/1/3
f 122/1/3 120/1/3 121/1/3
f 125/4/3 124/4/3 123/4/3
f 126/4/3 124/4/3 125/4/3
f 129/3/3 128/3/3 127/3/3
f 130/3/3 128/3/3 129/3/3
f 133/3/3 132/3/3 131/3/3
f 134/3/3 132/3/3 133/3/3
f 135/1/4 136/1/4 137/1/4
f 137/1/4 136/1/4 138/1/4
f 139/1/4 140/1/4 141/1/4
f 141/1/4 140/1/4 142/1/4
f 143/4/4 144/4/4 145/4/4
f 145/4/4 144/4/4 146/4/4
f 147/4/4 148/4/4 149/4/4
f 149/4/4 148/4/4 150/4/4
f 151/4/4 152/4/4 153/4/4
f 153/4/4 152/4/4 154/4/4
f 155/4/4 156/4/4 157/4/4
f 157/4/4 156/4/4 158/4/4
f 159/4/4 160/4/4 163/4/4
f 163/4/4 160/4/4 164/4/4
f 161/3/4 162/3/4 165/3/4
f 165/3/4 162/3/4 166/3/4
f 167/4/4 168/4/4 170/4/4
f 168/3/4 169/3/4 171/3/4
f 170/4/4 168/4/4 171/4/4
f 171/3/4 169/3/4 172/3/4
f 175/4/5 174/4/5 173/4/5
f 176/4/5 174/4/5 175/4/5
f 179/1/5 178/1/5 177/1/5
f 180/1/5 178/1/5 179/1/5
f 183/4/5 182/4/5 181/4/5
f 184/4/5 182/4/5 183/4/5
f 187/1/5 186/1/5 185/1/5
f 188/1/5 186/1/5 187/1/5
f 191/4/5 190/4/5 189/4/5
f 192/4/5 190/4/5 191/4/5
f 195/1/5 194/1/5 193/1/5
f 196/1/5 194/1/5 195/1/5
f 199/4/5 198/4/5 197/4/5
f 200/4/5 198/4/5 199/4/5
f 203/1/5 202/1/5 201/1/5
f 204/1/5 202/1/5 203/1/5
f 207/4/5 206/4/5 205/4/5
f 208/4/5 206/4/5 207/4/5
f 211/1/5 210/1/5 209/1/5
f 212/1/5 210/1/5 211/1/5
f 215/4/5 214/4/5 213/4/5
f 216/4/5 214/4/5 215/4/5
f 217/3/6 218/3/6 219/3/6
f 219/3/6 218/3/6 220/3/6
f 221/1/6 222/1/6 223/1/6
f 223/1/6 222/1/6 224/1/6
f 225/1/6 226/1/6 227/1/6
f 227/1/6 226/1/6 228/1/6
f 229/3/6 230/3/6 231/3/6
f 231/3/6 230/3/6 232/3/6
f 233/3/6 234/3/6 235/3/6
f 235/3/6 234/3/6 236/3/6
f 237/1/6 238/1/6 239/1/6
f 239/1/6 238/1/6 240/1/6
f 241/3/6 242/3/6 243/3/6
f 243/3/6 242/3/6 244/3/6
