# MagicaVoxel @ Ephtracy

# group
o 

# material
mtllib indicatorON.mtl
usemtl palette

# normals
vn -1 0 0
vn 1 0 0
vn 0 0 1
vn 0 0 -1
vn 0 -1 0
vn 0 1 0

# texcoords
vt 0.787109 0.5
vt 0.818359 0.5

# verts
v -0.2 0 0.2
v -0.2 0 -0.1
v -0.2 0.1 0.2
v -0.2 0.1 0.1
v -0.2 0.1 0
v -0.2 0.1 -0.1
v -0.2 0.3 0.1
v -0.2 0.3 0
v -0.1 0.1 0.2
v -0.1 0.1 0.1
v -0.1 0.1 0
v -0.1 0.1 -0.1
v -0.1 0.3 0.2
v -0.1 0.3 0.1
v -0.1 0.3 0
v -0.1 0.3 -0.1
v 0 0.1 0.2
v 0 0.1 0.1
v 0 0.1 0
v 0 0.1 -0.1
v 0 0.3 0.2
v 0 0.3 0.1
v 0 0.3 0
v 0 0.3 -0.1
v 0.1 0 0.2
v 0.1 0 0
v 0.1 0 -0.1
v 0.1 0.1 0.2
v 0.1 0.1 0.1
v 0.1 0.1 0
v 0.1 0.1 -0.1
v 0.1 0.3 0.1
v 0.1 0.3 0
v -0.2 0 0.2
v -0.2 0.1 0.2
v -0.1 0.1 0.2
v -0.1 0.3 0.2
v 0 0.1 0.2
v 0 0.3 0.2
v 0.1 0 0.2
v 0.1 0.1 0.2
v -0.2 0.1 0.1
v -0.2 0.3 0.1
v -0.1 0.1 0.1
v -0.1 0.3 0.1
v 0 0.1 0.1
v 0 0.3 0.1
v 0.1 0.1 0.1
v 0.1 0.3 0.1
v -0.2 0.1 0
v -0.2 0.3 0
v -0.1 0.1 0
v -0.1 0.3 0
v 0 0.1 0
v 0 0.3 0
v 0.1 0.1 0
v 0.1 0.3 0
v -0.2 0 -0.1
v -0.2 0.1 -0.1
v -0.1 0.1 -0.1
v -0.1 0.3 -0.1
v 0 0 -0.1
v 0 0.1 -0.1
v 0 0.3 -0.1
v 0.1 0 -0.1
v 0.1 0.1 -0.1
v -0.2 0 0.2
v 0.1 0 0.2
v 0 0 0
v 0.1 0 0
v -0.2 0 -0.1
v 0 0 -0.1
v 0.1 0 -0.1
v -0.2 0.1 0.2
v -0.1 0.1 0.2
v 0 0.1 0.2
v 0.1 0.1 0.2
v -0.2 0.1 0.1
v -0.1 0.1 0.1
v 0 0.1 0.1
v 0.1 0.1 0.1
v -0.2 0.1 0
v -0.1 0.1 0
v 0 0.1 0
v 0.1 0.1 0
v -0.2 0.1 -0.1
v -0.1 0.1 -0.1
v 0 0.1 -0.1
v 0.1 0.1 -0.1
v -0.1 0.3 0.2
v 0 0.3 0.2
v -0.2 0.3 0.1
v -0.1 0.3 0.1
v 0 0.3 0.1
v 0.1 0.3 0.1
v -0.2 0.3 0
v -0.1 0.3 0
v 0 0.3 0
v 0.1 0.3 0
v -0.1 0.3 -0.1
v 0 0.3 -0.1

# faces
f 3/1/1 2/1/1 1/1/1
f 4/1/1 2/1/1 3/1/1
f 5/1/1 2/1/1 4/1/1
f 6/1/1 2/1/1 5/1/1
f 7/1/1 5/1/1 4/1/1
f 8/1/1 5/1/1 7/1/1
f 13/1/1 10/1/1 9/1/1
f 14/1/1 10/1/1 13/1/1
f 15/1/1 12/1/1 11/1/1
f 16/1/1 12/1/1 15/1/1
f 17/1/2 18/1/2 21/1/2
f 21/1/2 18/1/2 22/1/2
f 19/1/2 20/1/2 23/1/2
f 23/1/2 20/1/2 24/1/2
f 25/1/2 26/1/2 28/1/2
f 28/1/2 26/1/2 29/1/2
f 26/2/2 27/2/2 30/2/2
f 29/1/2 26/1/2 30/1/2
f 30/2/2 27/2/2 31/2/2
f 29/1/2 30/1/2 32/1/2
f 32/1/2 30/1/2 33/1/2
f 36/1/3 35/1/3 34/1/3
f 38/1/3 36/1/3 34/1/3
f 38/1/3 37/1/3 36/1/3
f 39/1/3 37/1/3 38/1/3
f 40/1/3 38/1/3 34/1/3
f 41/1/3 38/1/3 40/1/3
f 44/1/3 43/1/3 42/1/3
f 45/1/3 43/1/3 44/1/3
f 48/1/3 47/1/3 46/1/3
f 49/1/3 47/1/3 48/1/3
f 50/1/4 51/1/4 52/1/4
f 52/1/4 51/1/4 53/1/4
f 54/1/4 55/1/4 56/1/4
f 56/1/4 55/1/4 57/1/4
f 58/1/4 59/1/4 60/1/4
f 58/1/4 60/1/4 62/1/4
f 60/1/4 61/1/4 62/1/4
f 62/1/4 61/1/4 63/1/4
f 63/1/4 61/1/4 64/1/4
f 62/2/4 63/2/4 65/2/4
f 65/2/4 63/2/4 66/2/4
f 69/1/5 68/1/5 67/1/5
f 70/1/5 68/1/5 69/1/5
f 71/1/5 69/1/5 67/1/5
f 72/2/5 70/2/5 69/2/5
f 72/1/5 69/1/5 71/1/5
f 73/2/5 70/2/5 72/2/5
f 74/1/6 75/1/6 78/1/6
f 78/1/6 75/1/6 79/1/6
f 76/1/6 77/1/6 80/1/6
f 80/1/6 77/1/6 81/1/6
f 82/1/6 83/1/6 86/1/6
f 86/1/6 83/1/6 87/1/6
f 84/2/6 85/2/6 88/2/6
f 88/2/6 85/2/6 89/2/6
f 90/1/6 91/1/6 93/1/6
f 93/1/6 91/1/6 94/1/6
f 92/1/6 93/1/6 96/1/6
f 94/1/6 95/1/6 96/1/6
f 93/1/6 94/1/6 96/1/6
f 96/1/6 95/1/6 97/1/6
f 97/1/6 95/1/6 98/1/6
f 98/1/6 95/1/6 99/1/6
f 97/1/6 98/1/6 100/1/6
f 100/1/6 98/1/6 101/1/6
